<?xml version="1.0" encoding="utf-8"?>
<!DOCTYPE svg PUBLIC "-//W3C//DTD SVG 1.0//EN" "http://www.w3.org/TR/2001/REC-SVG-20010904/DTD/svg10.dtd">
<svg version="1.0" xmlns="http://www.w3.org/2000/svg" width="942px" height="831px" viewBox="0 0 942 831" preserveAspectRatio="xMidYMid meet">
 <g fill="#1e4b61">
  <path d="M446.93 809.01 c-48.49 -5.28 -95.07 -25.28 -130.30 -56.02 -42.25 -36.80 -68.31 -79.05 -79.91 -129.35 l-2.42 -10.65 -12.29 0 c-6.84 0 -12.55 -0.35 -12.81 -0.78 -0.35 -0.43 2.51 -4.85 6.23 -9.78 3.72 -4.85 18.18 -24.07 32.12 -42.68 27.27 -36.28 29.09 -38.53 30.30 -37.23 0.78 0.87 36.10 47.45 56.19 74.11 6.23 8.31 11.43 15.41 11.43 15.76 0 0.26 -5.71 0.69 -12.73 0.78 l-12.81 0.26 0.17 2.42 c0.26 3.29 7.88 20.78 12.99 29.78 5.02 8.83 14.63 21.82 20.95 28.40 5.28 5.45 4.85 5.45 14.81 0.61 5.11 -2.42 8.31 -4.94 14.72 -11.43 9.44 -9.35 13.68 -16.45 16.45 -27.36 1.65 -6.41 1.73 -9.87 1.73 -82.51 0 -83.55 0 -82.77 -5.37 -92.99 -1.65 -3.12 -5.37 -7.97 -8.92 -11.52 -8.23 -8.31 -12.03 -11 -14.29 -10.30 -3.12 0.95 -20.35 18.79 -27.36 28.31 -8.66 11.69 -14.03 21.21 -19.39 34.03 -5.28 12.64 -6.23 14.03 -10.65 16.10 -4.68 2.08 -7.01 2.08 -11.52 -0.17 -7.88 -3.81 -9.18 -10.65 -4.33 -23.12 9.52 -24.68 21.04 -42.16 41.04 -62.60 l11.52 -11.86 -9.35 -7.53 c-5.11 -4.24 -10.04 -8.23 -10.91 -9 -1.39 -1.21 -2.16 -0.61 -10.22 7.36 -24.76 24.42 -43.20 54.72 -52.99 87.01 -2.94 9.61 -7.19 13.77 -14.03 13.77 -9.18 0 -15.50 -7.88 -13.42 -16.80 2.16 -9.44 11 -31.52 17.66 -44.24 9.52 -18.01 21.90 -36.10 32.55 -47.53 l5.54 -5.80 -20.78 0.26 -20.69 0.26 -5.63 2.94 c-3.90 1.99 -8.14 5.45 -13.85 11.26 -4.50 4.59 -21.47 21.73 -37.66 38.10 -32.29 32.64 -33.77 33.85 -40.43 32.03 -5.19 -1.39 -8.05 -3.64 -9.70 -7.71 -1.82 -4.50 -1.73 -7.53 0.17 -11 0.78 -1.56 15.58 -16.97 32.81 -34.29 17.32 -17.32 31.43 -31.78 31.43 -32.12 0 -0.26 -16.71 -0.52 -37.14 -0.52 -36.97 0 -37.06 0 -39.91 -1.90 -4.76 -3.29 -6.41 -6.23 -6.41 -11.34 -0.09 -3.55 0.43 -5.37 2.08 -7.71 4.33 -6.49 3.12 -6.23 43.55 -6.75 l36.19 -0.43 -31.17 -31.69 c-26.32 -26.84 -31.26 -32.29 -32.12 -35.33 -1.47 -5.71 0.78 -11.95 5.45 -14.81 3.81 -2.34 11.34 -2.34 14.89 0 1.39 0.87 19.48 18.79 40.26 39.74 30.04 30.30 38.53 38.44 41.99 40.09 4.24 1.99 4.85 1.99 40.69 2.42 35.15 0.43 36.54 0.52 41.21 2.42 2.68 1.04 6.58 3.20 8.66 4.68 9.61 6.93 65.11 53.16 69.09 57.49 8.74 9.52 15.32 23.81 17.84 38.44 1.21 6.49 1.30 18.87 1.13 86.23 l-0.26 78.70 -2.42 7.79 c-4.94 16.02 -11.43 27.01 -22.60 38.18 -13.25 13.16 -27.10 20.61 -47.88 25.45 -4.16 0.95 -4.85 0.87 -7.45 -0.78 -7.27 -4.50 -25.02 -24.85 -35.24 -40.35 -8.31 -12.73 -19.22 -38.01 -22.08 -51 l-0.52 -2.42 -13.16 0.35 c-7.27 0.17 -13.59 0.61 -14.20 0.95 -0.69 0.43 -0.35 3.12 1.47 9.96 16.10 61.39 63.38 115.93 122.34 141.30 28.57 12.21 53.42 17.40 84.59 17.49 18.96 0.09 26.41 -0.69 45.80 -5.02 21.73 -4.94 49.78 -16.80 68.31 -28.83 38.36 -25.02 69.61 -63.90 85.46 -106.15 5.71 -15.32 7.27 -17.32 14.63 -18.27 5.19 -0.78 9.61 0.87 12.47 4.68 5.02 6.67 2.34 17.32 -11.52 45.63 -19.91 40.52 -49.70 73.68 -87.62 97.66 -7.97 4.94 -30.13 16.62 -37.92 19.83 -18.01 7.53 -38.27 13.16 -54.98 15.32 -4.07 0.52 -10.39 1.30 -14.11 1.82 -9.09 1.21 -32.38 0.95 -45.45 -0.52z"/>
  <path d="M457.15 754.38 c-23.90 -2.42 -43.29 -7.88 -65.20 -18.27 l-10.13 -4.76 1.90 -2.16 c1.13 -1.13 5.11 -3.64 8.83 -5.54 28.40 -14.29 50.13 -38.70 59.22 -66.49 4.42 -13.42 4.68 -15.93 5.28 -51.69 0.52 -32.55 0.61 -34.03 2.34 -36.36 2.60 -3.46 6.93 -5.37 12.64 -5.45 4.42 0 5.19 0.26 7.88 2.86 4.94 4.59 5.19 6.84 4.68 40.43 -0.35 25.20 -0.69 31.43 -2.16 39.83 -4.68 25.89 -17.32 50.82 -35.41 70.22 l-6.32 6.67 3.72 0.87 c12.38 3.12 38.79 3.55 52.38 1.04 l5.54 -1.04 -4.76 -4.94 c-2.60 -2.68 -6.93 -7.71 -9.52 -11.17 l-4.76 -6.41 4.16 -8.74 c2.25 -4.85 5.02 -11.26 6.15 -14.20 1.30 -3.55 2.60 -5.45 3.46 -5.45 0.78 0 2.42 1.99 3.81 4.59 3.81 7.10 9.70 14.89 15.93 21.30 5.71 5.89 16.02 13.94 17.84 13.94 2.68 0 25.54 -12.55 25.54 -14.03 0 -0.26 -2.86 -2.42 -6.23 -4.68 -8.83 -5.80 -24.68 -21.73 -29.18 -29.52 -4.85 -8.23 -8.57 -17.92 -10.56 -27.53 -1.47 -7.27 -1.65 -13.07 -1.65 -84.24 0 -83.81 -0.09 -81.91 5.28 -96.54 1.39 -3.81 4.24 -9.78 6.41 -13.25 7.19 -11.52 11.17 -15.24 51.95 -48.49 24.94 -20.26 25.20 -20.52 30.48 -23.20 6.84 -3.38 13.42 -3.98 47.62 -3.98 l31.34 0 5.02 -2.16 c4.42 -1.99 9.70 -6.84 43.98 -41.04 21.47 -21.39 39.83 -39.31 40.87 -39.83 1.04 -0.52 4.07 -0.95 6.84 -0.95 4.59 0 5.11 0.17 8.23 3.38 3.81 4.07 4.94 8.74 3.29 13.68 -0.78 2.42 -8.74 11.08 -32.03 34.89 l-31 31.60 36.10 0.43 c32.64 0.43 36.36 0.61 38.96 1.99 4.94 2.68 7.97 9.52 6.67 15.32 -0.87 3.90 -5.97 9.26 -9.78 10.39 -1.90 0.52 -16.71 0.87 -36.71 0.87 -23.64 0 -33.68 0.26 -34.11 0.95 -0.35 0.61 7.97 9.61 20.09 21.90 37.75 38.01 40.78 41.30 41.99 45.37 2.94 10.04 -6.06 19.05 -16.45 16.45 -4.50 -1.13 -2.51 0.78 -51.69 -49.26 -25.71 -26.23 -30.04 -30.22 -34.89 -32.64 l-5.54 -2.77 -18.87 0 c-12.73 0 -19.05 0.35 -19.48 0.95 -0.26 0.52 1.39 2.94 3.72 5.37 18.87 19.57 39.48 56.54 48.31 86.93 2.08 6.93 5.45 21.90 6.84 29.96 l0.61 3.20 13.33 0 c10.22 0 13.42 0.26 13.42 1.13 0 0.52 -2.77 4.59 -6.15 8.83 -3.38 4.33 -18.18 23.81 -32.90 43.46 -14.81 19.65 -27.19 35.93 -27.71 36.28 -0.52 0.26 -1.90 -0.43 -3.12 -1.47 -4.42 -4.16 -66.06 -85.54 -66.06 -87.19 0 -0.78 3.55 -1.04 12.38 -1.04 6.84 0 12.64 -0.26 12.99 -0.52 0.95 -1.04 -6.49 -20.78 -12.47 -32.81 -8.83 -18.10 -21.13 -34.03 -36.71 -47.62 l-5.63 -4.94 -3.12 2.34 c-6.15 4.68 -14.11 12.73 -16.80 16.88 -1.56 2.42 -3.81 7.36 -5.11 11.08 l-2.25 6.67 0 78.79 0 78.79 2.51 7.71 c1.47 4.33 4.24 10.22 6.58 13.85 7.19 10.91 20.17 21.47 30.74 24.76 l3.38 1.13 4.68 -5.11 c10.82 -11.95 17.66 -22.25 26.49 -40 6.75 -13.42 8.74 -15.50 15.41 -16.28 4.07 -0.43 5.37 -0.26 7.79 1.21 5.63 3.55 7.79 10.13 5.45 17.06 -2.16 6.49 -9.35 20.87 -14.81 29.52 -23.72 37.84 -57.40 64.68 -99.91 79.65 -10.74 3.72 -19.48 5.97 -28.57 7.27 -4.07 0.52 -9 1.39 -11 1.82 -3.38 0.69 -25.63 0.87 -32.29 0.17z m221.65 -232.73 c0 -2.86 -7.01 -28.40 -9.96 -36.45 -10.39 -28.05 -24.59 -50.30 -45.89 -72.12 l-11.43 -11.69 -10.91 8.92 -10.91 8.92 8.66 8.23 c24.42 23.46 40.95 51.60 50.30 85.63 l2.77 9.87 13.68 0 c11.43 0 13.68 -0.17 13.68 -1.30z"/>
  <path d="M464.94 554.81 c-7.71 -3.98 -7.27 -1.65 -7.88 -45.97 -0.61 -42.08 -0.87 -44.50 -5.71 -59.05 -3.38 -10.13 -5.89 -15.58 -11 -23.38 -6.93 -10.56 -11 -14.55 -34.98 -34.37 -12.29 -10.04 -25.37 -20.87 -29.18 -24.07 -3.81 -3.12 -15.84 -13.07 -26.84 -22.08 -10.91 -9 -23.20 -19.13 -27.27 -22.42 -4.07 -3.38 -11.34 -9.26 -16.02 -13.07 -17.66 -14.20 -20.61 -18.10 -19.13 -25.97 1.13 -5.71 7.36 -10.82 13.25 -10.82 3.81 0 8.40 3.12 26.75 18.27 27.01 22.16 33.77 27.62 34.37 27.62 0.35 0 0.61 -17.40 0.61 -38.79 0 -36.02 0.09 -38.96 1.65 -41.73 4.76 -9 18.44 -9.44 23.20 -0.69 1.47 2.60 1.56 6.75 1.99 50.04 l0.43 47.19 2.25 4.76 c1.21 2.68 3.46 6.23 5.02 7.97 1.56 1.73 12.38 11.17 24.16 20.87 22.51 18.61 28.14 23.72 33.33 30.04 l3.20 3.81 -0.17 -83.90 -0.26 -83.98 -1.99 -5.71 c-3.90 -11.69 -7.53 -15.84 -51.08 -58.62 -43.29 -42.68 -44.24 -43.81 -43.03 -50.30 1.47 -7.71 5.71 -11.34 13.42 -11.34 3.12 0 5.54 0.52 7.10 1.56 1.21 0.78 15.50 14.37 31.60 30.13 16.10 15.76 32.55 31.78 36.62 35.58 l7.36 7.01 0.43 -66.75 c0.43 -63.72 0.52 -67.01 2.08 -70.22 2.25 -4.59 5.89 -6.58 11.77 -6.58 5.63 0 9.61 2.08 11.86 6.23 1.47 2.68 1.56 6.67 1.82 53.07 l0.26 50.13 43.46 -43.38 c23.90 -23.81 44.33 -43.81 45.37 -44.33 3.03 -1.56 9 -1.13 12.21 0.78 5.80 3.55 7.97 11.43 4.85 17.58 -0.78 1.56 -21.73 23.20 -46.58 48.23 -47.97 48.23 -50.91 51.60 -56.28 64.85 l-2.68 6.58 -0.26 101.65 -0.17 101.56 6.49 -6.93 c6.67 -7.10 9.61 -9.61 35.93 -31.52 17.06 -14.03 21.30 -18.53 23.81 -24.59 1.56 -3.98 1.73 -7.10 2.16 -51.86 l0.43 -47.62 1.99 -2.86 c2.68 -3.72 6.15 -5.37 11 -5.37 4.94 0 8.57 1.99 11.08 6.06 1.90 2.94 1.90 3.64 2.16 42.68 l0.26 39.65 3.20 -2.60 c1.73 -1.39 14.11 -11.60 27.45 -22.51 15.15 -12.47 25.45 -20.35 27.45 -20.95 6.67 -2.08 13.25 1.39 15.84 8.31 1.73 4.33 1.30 8.05 -1.21 12.21 -0.87 1.47 -11.08 10.39 -22.68 19.91 -25.71 21.04 -87.71 72.30 -103.98 85.89 -20.09 16.71 -28.83 28.83 -35.41 48.92 -5.19 15.93 -5.97 23.81 -5.97 61.47 0 32.55 -0.09 33.94 -1.82 37.58 -2.08 4.24 -7.62 8.05 -11.69 8.05 -1.39 0 -4.33 -0.87 -6.41 -1.90z"/>
  <path d="M224.33 251.95 c-3.46 -0.78 -6.67 -3.12 -9.09 -6.41 -1.82 -2.34 -1.82 -3.12 -1.82 -64.94 l0 -62.60 2.42 -3.12 c1.30 -1.73 3.29 -3.64 4.33 -4.24 1.39 -0.87 9.87 -1.21 32.55 -1.39 16.88 -0.17 31.69 0 32.90 0.26 2.77 0.69 36.80 34.29 38.62 38.18 1.13 2.42 1.30 8.92 1.30 47.27 -0.09 46.75 -0.26 48.57 -4.07 52.81 -4.24 4.68 -3.29 4.59 -50.48 4.76 -24.07 0.09 -45.02 -0.17 -46.67 -0.61z m88.05 -11.77 l1.90 -1.30 0 -41.39 0 -41.47 -13.25 -0.35 c-14.89 -0.35 -17.66 -1.30 -20.95 -6.75 -1.56 -2.77 -1.73 -4.33 -1.56 -15.76 l0.26 -12.81 -26.23 0 c-19.22 0 -26.49 0.26 -27.27 1.04 -0.78 0.78 -1.04 15.24 -1.04 59.74 l0 58.79 1.99 0.78 c1.04 0.43 20.43 0.78 43.03 0.78 35.93 0.09 41.39 -0.09 43.12 -1.30z m-14.55 -103.81 c-4.50 -4.50 -8.40 -8.23 -8.74 -8.23 -0.87 0 0.26 14.20 1.13 15.41 0.61 0.69 3.46 1.04 8.40 1.04 l7.45 0 -8.23 -8.23z"/>
  <path d="M240.09 219.48 c-2.42 -1.73 -2.60 -5.63 -0.43 -7.62 1.39 -1.30 4.07 -1.47 19.05 -1.47 l17.49 0 1.47 2.25 c1.30 1.99 1.30 2.51 0.17 4.50 -0.69 1.21 -2.25 2.51 -3.46 2.86 -1.30 0.26 -9.09 0.61 -17.32 0.69 -12.55 0.09 -15.41 -0.09 -16.97 -1.21z"/>
  <path d="M240 198.62 c-2.08 -1.39 -2.42 -3.81 -1.04 -6.49 0.87 -1.56 2.16 -1.65 29.70 -1.65 21.30 0 29.09 0.26 29.87 1.04 1.73 1.73 1.21 5.63 -0.87 7.10 -1.65 1.21 -5.89 1.39 -28.83 1.39 -22.94 0 -27.19 -0.17 -28.83 -1.39z"/>
  <path d="M239.57 177.66 c-1.90 -2.08 -1.82 -4.76 0.09 -6.49 1.47 -1.30 4.76 -1.47 29.44 -1.47 30.13 0 30.48 0.09 30.48 4.76 0 4.68 -0.35 4.76 -30.65 4.76 -25.97 0 -28.05 -0.09 -29.35 -1.56z"/>
  <path d="M618.27 251.95 c-2.42 -0.35 -4.42 -1.30 -5.45 -2.60 -1.56 -1.90 -1.56 -4.50 -1.39 -58.44 0.26 -54.20 0.35 -56.62 1.90 -58.36 1.65 -1.82 1.82 -1.82 59.05 -1.82 l57.40 0 1.82 1.90 c1.73 1.82 1.73 2.68 1.73 58.70 l0 56.88 -2.25 2.08 -2.25 2.08 -53.33 0.09 c-29.35 0.09 -55.15 -0.17 -57.23 -0.52z m102.94 -71.86 l0 -37.23 -48.92 0 -48.92 0 0 35.07 c0 19.31 0.26 35.07 0.69 34.98 0.35 0 7.19 -7.45 15.24 -16.45 7.97 -9 15.15 -16.36 15.93 -16.36 1.90 0 10.82 10.22 25.02 28.49 0.17 0.26 3.55 -2.77 7.45 -6.67 3.90 -3.90 7.88 -7.10 8.74 -7.10 0.87 0 6.67 5.02 12.99 11.26 6.23 6.15 11.43 11.26 11.60 11.26 0.09 0 0.17 -16.71 0.17 -37.23z"/>
  <path d="M689.70 177.49 c-7.97 -2.42 -9.70 -12.90 -3.03 -18.61 5.54 -4.59 14.03 -1.82 16.45 5.37 2.60 8.05 -5.11 15.76 -13.42 13.25z"/>
 </g>
</svg>